<mxfile host="app.diagrams.net" modified="2023-12-19T02:36:51.510Z" agent="Mozilla/5.0 (Windows NT 10.0; Win64; x64) AppleWebKit/537.36 (KHTML, like Gecko) Chrome/120.0.0.0 Safari/537.36" etag="yNhXp7HO4t9v2eJW7AzQ" version="22.1.11" type="github">
  <diagram name="Page-1" id="atEOPuB9E0fzgU6BC6SK">
    <mxGraphModel dx="794" dy="446" grid="1" gridSize="10" guides="1" tooltips="1" connect="1" arrows="1" fold="1" page="1" pageScale="1" pageWidth="850" pageHeight="1100" math="0" shadow="0">
      <root>
        <mxCell id="0" />
        <mxCell id="1" parent="0" />
        <mxCell id="Jurvhlej9G9M3A5gCrKr-1" value="" style="rounded=0;whiteSpace=wrap;html=1;" vertex="1" parent="1">
          <mxGeometry x="40" y="40" width="750" height="680" as="geometry" />
        </mxCell>
        <mxCell id="Jurvhlej9G9M3A5gCrKr-2" value="" style="rounded=0;whiteSpace=wrap;html=1;" vertex="1" parent="1">
          <mxGeometry x="80" y="60" width="240" height="630" as="geometry" />
        </mxCell>
        <mxCell id="Jurvhlej9G9M3A5gCrKr-3" value="" style="outlineConnect=0;dashed=0;verticalLabelPosition=bottom;verticalAlign=top;align=center;html=1;shape=mxgraph.aws3.virtual_private_cloud;fillColor=#F58534;gradientColor=none;" vertex="1" parent="1">
          <mxGeometry x="90" y="70" width="79.5" height="54" as="geometry" />
        </mxCell>
        <mxCell id="Jurvhlej9G9M3A5gCrKr-5" value="" style="sketch=0;points=[[0,0,0],[0.25,0,0],[0.5,0,0],[0.75,0,0],[1,0,0],[0,1,0],[0.25,1,0],[0.5,1,0],[0.75,1,0],[1,1,0],[0,0.25,0],[0,0.5,0],[0,0.75,0],[1,0.25,0],[1,0.5,0],[1,0.75,0]];outlineConnect=0;fontColor=#232F3E;fillColor=#ED7100;strokeColor=#ffffff;dashed=0;verticalLabelPosition=bottom;verticalAlign=top;align=center;html=1;fontSize=12;fontStyle=0;aspect=fixed;shape=mxgraph.aws4.resourceIcon;resIcon=mxgraph.aws4.ec2;" vertex="1" parent="1">
          <mxGeometry x="100" y="170" width="78" height="78" as="geometry" />
        </mxCell>
        <mxCell id="Jurvhlej9G9M3A5gCrKr-6" value="" style="sketch=0;points=[[0,0,0],[0.25,0,0],[0.5,0,0],[0.75,0,0],[1,0,0],[0,1,0],[0.25,1,0],[0.5,1,0],[0.75,1,0],[1,1,0],[0,0.25,0],[0,0.5,0],[0,0.75,0],[1,0.25,0],[1,0.5,0],[1,0.75,0]];outlineConnect=0;fontColor=#232F3E;fillColor=#7AA116;strokeColor=#ffffff;dashed=0;verticalLabelPosition=bottom;verticalAlign=top;align=center;html=1;fontSize=12;fontStyle=0;aspect=fixed;shape=mxgraph.aws4.resourceIcon;resIcon=mxgraph.aws4.elastic_block_store;" vertex="1" parent="1">
          <mxGeometry x="220" y="280" width="78" height="78" as="geometry" />
        </mxCell>
        <mxCell id="Jurvhlej9G9M3A5gCrKr-7" value="Amazon RDS" style="sketch=0;outlineConnect=0;fontColor=#232F3E;gradientColor=none;strokeColor=#ffffff;fillColor=#232F3E;dashed=0;verticalLabelPosition=middle;verticalAlign=bottom;align=center;html=1;whiteSpace=wrap;fontSize=10;fontStyle=1;spacing=3;shape=mxgraph.aws4.productIcon;prIcon=mxgraph.aws4.rds;" vertex="1" parent="1">
          <mxGeometry x="109" y="430" width="80" height="100" as="geometry" />
        </mxCell>
        <mxCell id="Jurvhlej9G9M3A5gCrKr-8" value="" style="sketch=0;points=[[0,0,0],[0.25,0,0],[0.5,0,0],[0.75,0,0],[1,0,0],[0,1,0],[0.25,1,0],[0.5,1,0],[0.75,1,0],[1,1,0],[0,0.25,0],[0,0.5,0],[0,0.75,0],[1,0.25,0],[1,0.5,0],[1,0.75,0]];outlineConnect=0;fontColor=#232F3E;fillColor=#8C4FFF;strokeColor=#ffffff;dashed=0;verticalLabelPosition=bottom;verticalAlign=top;align=center;html=1;fontSize=12;fontStyle=0;aspect=fixed;shape=mxgraph.aws4.resourceIcon;resIcon=mxgraph.aws4.client_vpn;" vertex="1" parent="1">
          <mxGeometry x="216.5" y="550" width="78" height="78" as="geometry" />
        </mxCell>
        <mxCell id="Jurvhlej9G9M3A5gCrKr-10" value="Actor" style="shape=umlActor;verticalLabelPosition=bottom;verticalAlign=top;html=1;outlineConnect=0;" vertex="1" parent="1">
          <mxGeometry x="220" y="80" width="30" height="60" as="geometry" />
        </mxCell>
        <mxCell id="Jurvhlej9G9M3A5gCrKr-11" value="Amazon EC2" style="text;html=1;strokeColor=none;fillColor=none;align=center;verticalAlign=middle;whiteSpace=wrap;rounded=0;" vertex="1" parent="1">
          <mxGeometry x="109" y="250" width="60" height="30" as="geometry" />
        </mxCell>
        <mxCell id="Jurvhlej9G9M3A5gCrKr-12" value="Amazon Elastic Block Store (EBS)" style="text;html=1;strokeColor=none;fillColor=none;align=center;verticalAlign=middle;whiteSpace=wrap;rounded=0;" vertex="1" parent="1">
          <mxGeometry x="223.5" y="370" width="71" height="30" as="geometry" />
        </mxCell>
        <mxCell id="Jurvhlej9G9M3A5gCrKr-16" value="AWS VPN" style="text;html=1;strokeColor=none;fillColor=none;align=center;verticalAlign=middle;whiteSpace=wrap;rounded=0;" vertex="1" parent="1">
          <mxGeometry x="226" y="640" width="60" height="30" as="geometry" />
        </mxCell>
        <mxCell id="Jurvhlej9G9M3A5gCrKr-17" value="AWS" style="text;strokeColor=none;fillColor=none;html=1;fontSize=24;fontStyle=1;verticalAlign=middle;align=center;" vertex="1" parent="1">
          <mxGeometry x="670" y="60" width="100" height="40" as="geometry" />
        </mxCell>
        <mxCell id="Jurvhlej9G9M3A5gCrKr-18" value="" style="rounded=0;whiteSpace=wrap;html=1;" vertex="1" parent="1">
          <mxGeometry x="100" y="990" width="1090" height="1300" as="geometry" />
        </mxCell>
        <mxCell id="Jurvhlej9G9M3A5gCrKr-19" value="Subnets" style="text;strokeColor=none;fillColor=none;html=1;fontSize=24;fontStyle=1;verticalAlign=middle;align=center;" vertex="1" parent="1">
          <mxGeometry x="135" y="760" width="100" height="40" as="geometry" />
        </mxCell>
        <mxCell id="Jurvhlej9G9M3A5gCrKr-20" value="" style="rounded=0;whiteSpace=wrap;html=1;" vertex="1" parent="1">
          <mxGeometry x="180" y="1070" width="240" height="900" as="geometry" />
        </mxCell>
        <mxCell id="Jurvhlej9G9M3A5gCrKr-21" value="" style="rounded=0;whiteSpace=wrap;html=1;" vertex="1" parent="1">
          <mxGeometry x="910" y="1070" width="200" height="900" as="geometry" />
        </mxCell>
        <mxCell id="Jurvhlej9G9M3A5gCrKr-22" value="Public" style="text;html=1;strokeColor=none;fillColor=none;align=center;verticalAlign=middle;whiteSpace=wrap;rounded=0;" vertex="1" parent="1">
          <mxGeometry x="260" y="1040" width="60" height="30" as="geometry" />
        </mxCell>
        <mxCell id="Jurvhlej9G9M3A5gCrKr-23" value="Private" style="text;html=1;strokeColor=none;fillColor=none;align=center;verticalAlign=middle;whiteSpace=wrap;rounded=0;" vertex="1" parent="1">
          <mxGeometry x="980" y="1040" width="60" height="30" as="geometry" />
        </mxCell>
        <mxCell id="Jurvhlej9G9M3A5gCrKr-24" value="10.0.1.0/24" style="text;html=1;strokeColor=none;fillColor=none;align=center;verticalAlign=middle;whiteSpace=wrap;rounded=0;" vertex="1" parent="1">
          <mxGeometry x="260" y="1390" width="60" height="30" as="geometry" />
        </mxCell>
        <mxCell id="Jurvhlej9G9M3A5gCrKr-25" value="10.0.2.0/24" style="text;html=1;strokeColor=none;fillColor=none;align=center;verticalAlign=middle;whiteSpace=wrap;rounded=0;" vertex="1" parent="1">
          <mxGeometry x="980" y="1390" width="60" height="30" as="geometry" />
        </mxCell>
        <mxCell id="Jurvhlej9G9M3A5gCrKr-26" value="" style="outlineConnect=0;dashed=0;verticalLabelPosition=bottom;verticalAlign=top;align=center;html=1;shape=mxgraph.aws3.internet_gateway;fillColor=#F58534;gradientColor=none;" vertex="1" parent="1">
          <mxGeometry x="80" y="960" width="69" height="72" as="geometry" />
        </mxCell>
        <mxCell id="Jurvhlej9G9M3A5gCrKr-27" value="Internet Gateway" style="text;html=1;strokeColor=none;fillColor=none;align=center;verticalAlign=middle;whiteSpace=wrap;rounded=0;" vertex="1" parent="1">
          <mxGeometry x="149" y="1010" width="60" height="30" as="geometry" />
        </mxCell>
        <mxCell id="Jurvhlej9G9M3A5gCrKr-28" value="" style="image;aspect=fixed;perimeter=ellipsePerimeter;html=1;align=center;shadow=0;dashed=0;spacingTop=3;image=img/lib/active_directory/internet_cloud.svg;" vertex="1" parent="1">
          <mxGeometry x="260" y="810" width="50" height="31.5" as="geometry" />
        </mxCell>
        <mxCell id="Jurvhlej9G9M3A5gCrKr-29" value="Internet" style="text;html=1;strokeColor=none;fillColor=none;align=center;verticalAlign=middle;whiteSpace=wrap;rounded=0;" vertex="1" parent="1">
          <mxGeometry x="235" y="880" width="60" height="30" as="geometry" />
        </mxCell>
        <mxCell id="Jurvhlej9G9M3A5gCrKr-30" value="" style="endArrow=classic;startArrow=classic;html=1;rounded=0;exitX=0.5;exitY=0;exitDx=0;exitDy=0;exitPerimeter=0;entryX=0.487;entryY=1.249;entryDx=0;entryDy=0;entryPerimeter=0;" edge="1" parent="1" source="Jurvhlej9G9M3A5gCrKr-26" target="Jurvhlej9G9M3A5gCrKr-28">
          <mxGeometry width="50" height="50" relative="1" as="geometry">
            <mxPoint x="380" y="920" as="sourcePoint" />
            <mxPoint x="280" y="920" as="targetPoint" />
          </mxGeometry>
        </mxCell>
        <mxCell id="Jurvhlej9G9M3A5gCrKr-31" value="" style="rounded=0;whiteSpace=wrap;html=1;" vertex="1" parent="1">
          <mxGeometry x="200" y="1110" width="60" height="40" as="geometry" />
        </mxCell>
        <mxCell id="Jurvhlej9G9M3A5gCrKr-32" value="" style="rounded=0;whiteSpace=wrap;html=1;" vertex="1" parent="1">
          <mxGeometry x="270" y="1110" width="60" height="40" as="geometry" />
        </mxCell>
        <mxCell id="Jurvhlej9G9M3A5gCrKr-33" value="" style="rounded=0;whiteSpace=wrap;html=1;" vertex="1" parent="1">
          <mxGeometry x="340" y="1110" width="60" height="40" as="geometry" />
        </mxCell>
        <mxCell id="Jurvhlej9G9M3A5gCrKr-34" value="www (Web Servers)" style="text;html=1;strokeColor=none;fillColor=none;align=center;verticalAlign=middle;whiteSpace=wrap;rounded=0;" vertex="1" parent="1">
          <mxGeometry x="220" y="1170" width="140" height="30" as="geometry" />
        </mxCell>
        <mxCell id="Jurvhlej9G9M3A5gCrKr-35" value="" style="shape=cylinder3;whiteSpace=wrap;html=1;boundedLbl=1;backgroundOutline=1;size=15;" vertex="1" parent="1">
          <mxGeometry x="930" y="1110" width="60" height="80" as="geometry" />
        </mxCell>
        <mxCell id="Jurvhlej9G9M3A5gCrKr-36" value="" style="shape=cylinder3;whiteSpace=wrap;html=1;boundedLbl=1;backgroundOutline=1;size=15;" vertex="1" parent="1">
          <mxGeometry x="1020" y="1110" width="60" height="80" as="geometry" />
        </mxCell>
        <mxCell id="Jurvhlej9G9M3A5gCrKr-37" value="Database" style="text;html=1;strokeColor=none;fillColor=none;align=center;verticalAlign=middle;whiteSpace=wrap;rounded=0;" vertex="1" parent="1">
          <mxGeometry x="980" y="1200" width="60" height="30" as="geometry" />
        </mxCell>
        <mxCell id="Jurvhlej9G9M3A5gCrKr-38" value="" style="rounded=0;whiteSpace=wrap;html=1;" vertex="1" parent="1">
          <mxGeometry x="525" y="1070" width="330" height="900" as="geometry" />
        </mxCell>
        <mxCell id="Jurvhlej9G9M3A5gCrKr-39" value="Private" style="text;html=1;strokeColor=none;fillColor=none;align=center;verticalAlign=middle;whiteSpace=wrap;rounded=0;" vertex="1" parent="1">
          <mxGeometry x="675" y="1040" width="60" height="30" as="geometry" />
        </mxCell>
        <mxCell id="Jurvhlej9G9M3A5gCrKr-40" value="" style="sketch=0;points=[[0,0,0],[0.25,0,0],[0.5,0,0],[0.75,0,0],[1,0,0],[0,1,0],[0.25,1,0],[0.5,1,0],[0.75,1,0],[1,1,0],[0,0.25,0],[0,0.5,0],[0,0.75,0],[1,0.25,0],[1,0.5,0],[1,0.75,0]];outlineConnect=0;fontColor=#232F3E;fillColor=#ED7100;strokeColor=#ffffff;dashed=0;verticalLabelPosition=bottom;verticalAlign=top;align=center;html=1;fontSize=12;fontStyle=0;aspect=fixed;shape=mxgraph.aws4.resourceIcon;resIcon=mxgraph.aws4.ec2;" vertex="1" parent="1">
          <mxGeometry x="555" y="1110" width="78" height="78" as="geometry" />
        </mxCell>
        <mxCell id="Jurvhlej9G9M3A5gCrKr-41" value="" style="sketch=0;points=[[0,0,0],[0.25,0,0],[0.5,0,0],[0.75,0,0],[1,0,0],[0,1,0],[0.25,1,0],[0.5,1,0],[0.75,1,0],[1,1,0],[0,0.25,0],[0,0.5,0],[0,0.75,0],[1,0.25,0],[1,0.5,0],[1,0.75,0]];outlineConnect=0;fontColor=#232F3E;fillColor=#ED7100;strokeColor=#ffffff;dashed=0;verticalLabelPosition=bottom;verticalAlign=top;align=center;html=1;fontSize=12;fontStyle=0;aspect=fixed;shape=mxgraph.aws4.resourceIcon;resIcon=mxgraph.aws4.ec2;" vertex="1" parent="1">
          <mxGeometry x="657" y="1110" width="78" height="78" as="geometry" />
        </mxCell>
        <mxCell id="Jurvhlej9G9M3A5gCrKr-42" value="" style="sketch=0;points=[[0,0,0],[0.25,0,0],[0.5,0,0],[0.75,0,0],[1,0,0],[0,1,0],[0.25,1,0],[0.5,1,0],[0.75,1,0],[1,1,0],[0,0.25,0],[0,0.5,0],[0,0.75,0],[1,0.25,0],[1,0.5,0],[1,0.75,0]];outlineConnect=0;fontColor=#232F3E;fillColor=#ED7100;strokeColor=#ffffff;dashed=0;verticalLabelPosition=bottom;verticalAlign=top;align=center;html=1;fontSize=12;fontStyle=0;aspect=fixed;shape=mxgraph.aws4.resourceIcon;resIcon=mxgraph.aws4.ec2;" vertex="1" parent="1">
          <mxGeometry x="755" y="1110" width="78" height="78" as="geometry" />
        </mxCell>
        <mxCell id="Jurvhlej9G9M3A5gCrKr-43" value="Amazon EC2" style="text;html=1;strokeColor=none;fillColor=none;align=center;verticalAlign=middle;whiteSpace=wrap;rounded=0;" vertex="1" parent="1">
          <mxGeometry x="641" y="1210" width="110" height="30" as="geometry" />
        </mxCell>
        <mxCell id="Jurvhlej9G9M3A5gCrKr-44" value="" style="endArrow=none;html=1;rounded=0;exitX=1;exitY=0.5;exitDx=0;exitDy=0;entryX=0;entryY=0.5;entryDx=0;entryDy=0;" edge="1" parent="1" source="Jurvhlej9G9M3A5gCrKr-20" target="Jurvhlej9G9M3A5gCrKr-38">
          <mxGeometry width="50" height="50" relative="1" as="geometry">
            <mxPoint x="610" y="1260" as="sourcePoint" />
            <mxPoint x="660" y="1210" as="targetPoint" />
          </mxGeometry>
        </mxCell>
        <mxCell id="Jurvhlej9G9M3A5gCrKr-45" value="" style="endArrow=none;html=1;rounded=0;exitX=1;exitY=0.5;exitDx=0;exitDy=0;" edge="1" parent="1" source="Jurvhlej9G9M3A5gCrKr-38" target="Jurvhlej9G9M3A5gCrKr-21">
          <mxGeometry width="50" height="50" relative="1" as="geometry">
            <mxPoint x="860" y="1250" as="sourcePoint" />
            <mxPoint x="660" y="1210" as="targetPoint" />
            <Array as="points">
              <mxPoint x="880" y="1520" />
            </Array>
          </mxGeometry>
        </mxCell>
        <mxCell id="Jurvhlej9G9M3A5gCrKr-46" value="" style="endArrow=none;html=1;rounded=0;exitX=0.5;exitY=1;exitDx=0;exitDy=0;entryX=0.5;entryY=1;entryDx=0;entryDy=0;" edge="1" parent="1" source="Jurvhlej9G9M3A5gCrKr-22" target="Jurvhlej9G9M3A5gCrKr-23">
          <mxGeometry width="50" height="50" relative="1" as="geometry">
            <mxPoint x="740" y="1360" as="sourcePoint" />
            <mxPoint x="790" y="1310" as="targetPoint" />
            <Array as="points">
              <mxPoint x="680" y="1030" />
            </Array>
          </mxGeometry>
        </mxCell>
        <mxCell id="Jurvhlej9G9M3A5gCrKr-47" value="Availability Zone (AZ)&lt;br&gt;2" style="text;html=1;strokeColor=none;fillColor=none;align=center;verticalAlign=middle;whiteSpace=wrap;rounded=0;" vertex="1" parent="1">
          <mxGeometry x="660" y="1370" width="60" height="30" as="geometry" />
        </mxCell>
        <mxCell id="Jurvhlej9G9M3A5gCrKr-48" value="" style="endArrow=none;html=1;rounded=0;exitX=0;exitY=0.75;exitDx=0;exitDy=0;entryX=1;entryY=0.75;entryDx=0;entryDy=0;" edge="1" parent="1" source="Jurvhlej9G9M3A5gCrKr-38" target="Jurvhlej9G9M3A5gCrKr-38">
          <mxGeometry width="50" height="50" relative="1" as="geometry">
            <mxPoint x="670" y="1530" as="sourcePoint" />
            <mxPoint x="720" y="1480" as="targetPoint" />
          </mxGeometry>
        </mxCell>
        <mxCell id="Jurvhlej9G9M3A5gCrKr-49" value="" style="endArrow=none;html=1;rounded=0;exitX=0;exitY=0.75;exitDx=0;exitDy=0;entryX=1;entryY=0.75;entryDx=0;entryDy=0;" edge="1" parent="1" source="Jurvhlej9G9M3A5gCrKr-20" target="Jurvhlej9G9M3A5gCrKr-20">
          <mxGeometry width="50" height="50" relative="1" as="geometry">
            <mxPoint x="535" y="1590" as="sourcePoint" />
            <mxPoint x="400" y="1580" as="targetPoint" />
          </mxGeometry>
        </mxCell>
        <mxCell id="Jurvhlej9G9M3A5gCrKr-50" value="" style="endArrow=none;html=1;rounded=0;exitX=0;exitY=0.75;exitDx=0;exitDy=0;entryX=1;entryY=0.75;entryDx=0;entryDy=0;" edge="1" parent="1" source="Jurvhlej9G9M3A5gCrKr-21" target="Jurvhlej9G9M3A5gCrKr-21">
          <mxGeometry width="50" height="50" relative="1" as="geometry">
            <mxPoint x="940" y="1590" as="sourcePoint" />
            <mxPoint x="1080" y="1580" as="targetPoint" />
          </mxGeometry>
        </mxCell>
        <mxCell id="Jurvhlej9G9M3A5gCrKr-51" value="" style="rounded=0;whiteSpace=wrap;html=1;" vertex="1" parent="1">
          <mxGeometry x="200" y="1770" width="60" height="40" as="geometry" />
        </mxCell>
        <mxCell id="Jurvhlej9G9M3A5gCrKr-52" value="" style="rounded=0;whiteSpace=wrap;html=1;" vertex="1" parent="1">
          <mxGeometry x="270" y="1770" width="60" height="40" as="geometry" />
        </mxCell>
        <mxCell id="Jurvhlej9G9M3A5gCrKr-53" value="" style="rounded=0;whiteSpace=wrap;html=1;" vertex="1" parent="1">
          <mxGeometry x="340" y="1770" width="60" height="40" as="geometry" />
        </mxCell>
        <mxCell id="Jurvhlej9G9M3A5gCrKr-54" value="www (Web Servers)" style="text;html=1;strokeColor=none;fillColor=none;align=center;verticalAlign=middle;whiteSpace=wrap;rounded=0;" vertex="1" parent="1">
          <mxGeometry x="220" y="1830" width="140" height="30" as="geometry" />
        </mxCell>
        <mxCell id="Jurvhlej9G9M3A5gCrKr-55" value="" style="sketch=0;points=[[0,0,0],[0.25,0,0],[0.5,0,0],[0.75,0,0],[1,0,0],[0,1,0],[0.25,1,0],[0.5,1,0],[0.75,1,0],[1,1,0],[0,0.25,0],[0,0.5,0],[0,0.75,0],[1,0.25,0],[1,0.5,0],[1,0.75,0]];outlineConnect=0;fontColor=#232F3E;fillColor=#ED7100;strokeColor=#ffffff;dashed=0;verticalLabelPosition=bottom;verticalAlign=top;align=center;html=1;fontSize=12;fontStyle=0;aspect=fixed;shape=mxgraph.aws4.resourceIcon;resIcon=mxgraph.aws4.ec2;" vertex="1" parent="1">
          <mxGeometry x="551" y="1772" width="78" height="78" as="geometry" />
        </mxCell>
        <mxCell id="Jurvhlej9G9M3A5gCrKr-56" value="" style="sketch=0;points=[[0,0,0],[0.25,0,0],[0.5,0,0],[0.75,0,0],[1,0,0],[0,1,0],[0.25,1,0],[0.5,1,0],[0.75,1,0],[1,1,0],[0,0.25,0],[0,0.5,0],[0,0.75,0],[1,0.25,0],[1,0.5,0],[1,0.75,0]];outlineConnect=0;fontColor=#232F3E;fillColor=#ED7100;strokeColor=#ffffff;dashed=0;verticalLabelPosition=bottom;verticalAlign=top;align=center;html=1;fontSize=12;fontStyle=0;aspect=fixed;shape=mxgraph.aws4.resourceIcon;resIcon=mxgraph.aws4.ec2;" vertex="1" parent="1">
          <mxGeometry x="653" y="1772" width="78" height="78" as="geometry" />
        </mxCell>
        <mxCell id="Jurvhlej9G9M3A5gCrKr-57" value="" style="sketch=0;points=[[0,0,0],[0.25,0,0],[0.5,0,0],[0.75,0,0],[1,0,0],[0,1,0],[0.25,1,0],[0.5,1,0],[0.75,1,0],[1,1,0],[0,0.25,0],[0,0.5,0],[0,0.75,0],[1,0.25,0],[1,0.5,0],[1,0.75,0]];outlineConnect=0;fontColor=#232F3E;fillColor=#ED7100;strokeColor=#ffffff;dashed=0;verticalLabelPosition=bottom;verticalAlign=top;align=center;html=1;fontSize=12;fontStyle=0;aspect=fixed;shape=mxgraph.aws4.resourceIcon;resIcon=mxgraph.aws4.ec2;" vertex="1" parent="1">
          <mxGeometry x="751" y="1772" width="78" height="78" as="geometry" />
        </mxCell>
        <mxCell id="Jurvhlej9G9M3A5gCrKr-58" value="Amazon EC2" style="text;html=1;strokeColor=none;fillColor=none;align=center;verticalAlign=middle;whiteSpace=wrap;rounded=0;" vertex="1" parent="1">
          <mxGeometry x="637" y="1850" width="110" height="30" as="geometry" />
        </mxCell>
        <mxCell id="Jurvhlej9G9M3A5gCrKr-59" value="" style="shape=cylinder3;whiteSpace=wrap;html=1;boundedLbl=1;backgroundOutline=1;size=15;" vertex="1" parent="1">
          <mxGeometry x="935" y="1760" width="60" height="80" as="geometry" />
        </mxCell>
        <mxCell id="Jurvhlej9G9M3A5gCrKr-60" value="" style="shape=cylinder3;whiteSpace=wrap;html=1;boundedLbl=1;backgroundOutline=1;size=15;" vertex="1" parent="1">
          <mxGeometry x="1025" y="1760" width="60" height="80" as="geometry" />
        </mxCell>
        <mxCell id="Jurvhlej9G9M3A5gCrKr-61" value="Database" style="text;html=1;strokeColor=none;fillColor=none;align=center;verticalAlign=middle;whiteSpace=wrap;rounded=0;" vertex="1" parent="1">
          <mxGeometry x="985" y="1850" width="60" height="30" as="geometry" />
        </mxCell>
        <mxCell id="Jurvhlej9G9M3A5gCrKr-62" value="Local" style="text;html=1;strokeColor=none;fillColor=none;align=center;verticalAlign=middle;whiteSpace=wrap;rounded=0;" vertex="1" parent="1">
          <mxGeometry x="260" y="1860" width="60" height="30" as="geometry" />
        </mxCell>
        <mxCell id="Jurvhlej9G9M3A5gCrKr-63" value="Local" style="text;html=1;strokeColor=none;fillColor=none;align=center;verticalAlign=middle;whiteSpace=wrap;rounded=0;" vertex="1" parent="1">
          <mxGeometry x="659" y="1880" width="60" height="30" as="geometry" />
        </mxCell>
        <mxCell id="Jurvhlej9G9M3A5gCrKr-64" value="Local" style="text;html=1;strokeColor=none;fillColor=none;align=center;verticalAlign=middle;whiteSpace=wrap;rounded=0;" vertex="1" parent="1">
          <mxGeometry x="980" y="1880" width="60" height="30" as="geometry" />
        </mxCell>
        <mxCell id="Jurvhlej9G9M3A5gCrKr-65" value="" style="outlineConnect=0;dashed=0;verticalLabelPosition=bottom;verticalAlign=top;align=center;html=1;shape=mxgraph.aws3.internet_gateway;fillColor=#F58534;gradientColor=none;" vertex="1" parent="1">
          <mxGeometry x="191" y="1860" width="69" height="72" as="geometry" />
        </mxCell>
        <mxCell id="Jurvhlej9G9M3A5gCrKr-66" value="" style="outlineConnect=0;dashed=0;verticalLabelPosition=bottom;verticalAlign=top;align=center;html=1;shape=mxgraph.aws3.internet_gateway;fillColor=#F58534;gradientColor=none;" vertex="1" parent="1">
          <mxGeometry x="926" y="1890" width="69" height="72" as="geometry" />
        </mxCell>
        <mxCell id="Jurvhlej9G9M3A5gCrKr-67" value="" style="outlineConnect=0;dashed=0;verticalLabelPosition=bottom;verticalAlign=top;align=center;html=1;shape=mxgraph.aws3.internet_gateway;fillColor=#F58534;gradientColor=none;" vertex="1" parent="1">
          <mxGeometry x="550" y="1880" width="69" height="72" as="geometry" />
        </mxCell>
        <mxCell id="Jurvhlej9G9M3A5gCrKr-68" value="" style="endArrow=none;html=1;rounded=0;entryX=0.009;entryY=0.892;entryDx=0;entryDy=0;entryPerimeter=0;" edge="1" parent="1" target="Jurvhlej9G9M3A5gCrKr-38">
          <mxGeometry width="50" height="50" relative="1" as="geometry">
            <mxPoint x="420" y="1873" as="sourcePoint" />
            <mxPoint x="524.64" y="1855" as="targetPoint" />
            <Array as="points">
              <mxPoint x="470" y="1873" />
            </Array>
          </mxGeometry>
        </mxCell>
        <mxCell id="Jurvhlej9G9M3A5gCrKr-69" value="" style="endArrow=none;html=1;rounded=0;" edge="1" parent="1">
          <mxGeometry width="50" height="50" relative="1" as="geometry">
            <mxPoint x="470" y="1870" as="sourcePoint" />
            <mxPoint x="470" y="1520" as="targetPoint" />
          </mxGeometry>
        </mxCell>
        <mxCell id="Jurvhlej9G9M3A5gCrKr-70" value="" style="endArrow=none;html=1;rounded=0;entryX=-0.027;entryY=0.925;entryDx=0;entryDy=0;entryPerimeter=0;" edge="1" parent="1" target="Jurvhlej9G9M3A5gCrKr-21">
          <mxGeometry width="50" height="50" relative="1" as="geometry">
            <mxPoint x="855" y="1904" as="sourcePoint" />
            <mxPoint x="905" y="1854" as="targetPoint" />
          </mxGeometry>
        </mxCell>
        <mxCell id="Jurvhlej9G9M3A5gCrKr-71" value="" style="endArrow=none;html=1;rounded=0;" edge="1" parent="1">
          <mxGeometry width="50" height="50" relative="1" as="geometry">
            <mxPoint x="880" y="1900" as="sourcePoint" />
            <mxPoint x="880" y="1520" as="targetPoint" />
          </mxGeometry>
        </mxCell>
        <mxCell id="Jurvhlej9G9M3A5gCrKr-72" value="Availability Zone (AZ)&lt;br&gt;1" style="text;html=1;strokeColor=none;fillColor=none;align=center;verticalAlign=middle;whiteSpace=wrap;rounded=0;" vertex="1" parent="1">
          <mxGeometry x="260" y="1360" width="60" height="30" as="geometry" />
        </mxCell>
        <mxCell id="Jurvhlej9G9M3A5gCrKr-73" value="Availability Zone (AZ)&lt;br&gt;3" style="text;html=1;strokeColor=none;fillColor=none;align=center;verticalAlign=middle;whiteSpace=wrap;rounded=0;" vertex="1" parent="1">
          <mxGeometry x="980" y="1360" width="60" height="30" as="geometry" />
        </mxCell>
        <mxCell id="Jurvhlej9G9M3A5gCrKr-74" value="Availability Zone (AZ)&lt;br&gt;3" style="text;html=1;strokeColor=none;fillColor=none;align=center;verticalAlign=middle;whiteSpace=wrap;rounded=0;" vertex="1" parent="1">
          <mxGeometry x="320" y="1890" width="60" height="30" as="geometry" />
        </mxCell>
        <mxCell id="Jurvhlej9G9M3A5gCrKr-75" value="Availability Zone (AZ)&lt;br&gt;1" style="text;html=1;strokeColor=none;fillColor=none;align=center;verticalAlign=middle;whiteSpace=wrap;rounded=0;" vertex="1" parent="1">
          <mxGeometry x="764" y="1910" width="60" height="30" as="geometry" />
        </mxCell>
        <mxCell id="Jurvhlej9G9M3A5gCrKr-76" value="Availability Zone (AZ)&lt;br&gt;2" style="text;html=1;strokeColor=none;fillColor=none;align=center;verticalAlign=middle;whiteSpace=wrap;rounded=0;" vertex="1" parent="1">
          <mxGeometry x="1040" y="1911" width="60" height="30" as="geometry" />
        </mxCell>
        <mxCell id="Jurvhlej9G9M3A5gCrKr-77" value="Web Layer" style="text;html=1;strokeColor=none;fillColor=none;align=center;verticalAlign=middle;whiteSpace=wrap;rounded=0;" vertex="1" parent="1">
          <mxGeometry x="249" y="1990" width="60" height="30" as="geometry" />
        </mxCell>
        <mxCell id="Jurvhlej9G9M3A5gCrKr-78" value="Application Layer" style="text;html=1;strokeColor=none;fillColor=none;align=center;verticalAlign=middle;whiteSpace=wrap;rounded=0;" vertex="1" parent="1">
          <mxGeometry x="650" y="1990" width="60" height="30" as="geometry" />
        </mxCell>
        <mxCell id="Jurvhlej9G9M3A5gCrKr-79" value="Database Layer" style="text;html=1;strokeColor=none;fillColor=none;align=center;verticalAlign=middle;whiteSpace=wrap;rounded=0;" vertex="1" parent="1">
          <mxGeometry x="1020" y="1990" width="60" height="30" as="geometry" />
        </mxCell>
        <mxCell id="Jurvhlej9G9M3A5gCrKr-80" value="&lt;b&gt;&lt;font style=&quot;font-size: 24px;&quot;&gt;VPC&lt;/font&gt;&lt;/b&gt;" style="text;html=1;strokeColor=none;fillColor=none;align=center;verticalAlign=middle;whiteSpace=wrap;rounded=0;" vertex="1" parent="1">
          <mxGeometry x="470" y="960" width="60" height="30" as="geometry" />
        </mxCell>
        <mxCell id="Jurvhlej9G9M3A5gCrKr-81" value="&lt;b&gt;&lt;font style=&quot;font-size: 24px;&quot;&gt;10.0.0.0/16&lt;/font&gt;&lt;/b&gt;" style="text;html=1;strokeColor=none;fillColor=none;align=center;verticalAlign=middle;whiteSpace=wrap;rounded=0;" vertex="1" parent="1">
          <mxGeometry x="659" y="960" width="60" height="30" as="geometry" />
        </mxCell>
        <mxCell id="Jurvhlej9G9M3A5gCrKr-82" value="" style="endArrow=classic;html=1;rounded=0;exitX=1;exitY=0.75;exitDx=0;exitDy=0;" edge="1" parent="1" source="Jurvhlej9G9M3A5gCrKr-80">
          <mxGeometry width="50" height="50" relative="1" as="geometry">
            <mxPoint x="500" y="960" as="sourcePoint" />
            <mxPoint x="620" y="980" as="targetPoint" />
          </mxGeometry>
        </mxCell>
        <mxCell id="Jurvhlej9G9M3A5gCrKr-83" value="" style="endArrow=none;html=1;rounded=0;exitX=0.5;exitY=1;exitDx=0;exitDy=0;exitPerimeter=0;entryX=0;entryY=0.25;entryDx=0;entryDy=0;" edge="1" parent="1" source="Jurvhlej9G9M3A5gCrKr-26" target="Jurvhlej9G9M3A5gCrKr-20">
          <mxGeometry width="50" height="50" relative="1" as="geometry">
            <mxPoint x="300" y="1160" as="sourcePoint" />
            <mxPoint x="350" y="1110" as="targetPoint" />
          </mxGeometry>
        </mxCell>
      </root>
    </mxGraphModel>
  </diagram>
</mxfile>
